<?xml version="1.0" encoding="UTF-8" standalone="no"?>
<!-- Created with Inkscape (http://www.inkscape.org/) -->
<svg id="svg2" xmlns:rdf="http://www.w3.org/1999/02/22-rdf-syntax-ns#" xmlns="http://www.w3.org/2000/svg" height="37.136mm" width="291.49mm" version="1.1" xmlns:cc="http://creativecommons.org/ns#" xmlns:dc="http://purl.org/dc/elements/1.1/" viewBox="0 0 1032.8393 131.58577">
 <metadata id="metadata7">
  <rdf:RDF>
   <cc:Work rdf:about="">
    <dc:format>image/svg+xml</dc:format>
    <dc:type rdf:resource="http://purl.org/dc/dcmitype/StillImage"/>
    <dc:title/>
   </cc:Work>
  </rdf:RDF>
 </metadata>
 <g id="layer1" transform="translate(-66.146 -112.28)">
  <g id="layer1-7" transform="translate(-37.011 -365.36)">
   <path id="path3006" fill="#f03c2e" d="m214.94 529.54-49.745-49.739c-2.8622-2.8648-7.5082-2.8648-10.374 0l-10.329 10.33 13.102 13.102c3.0459-1.0284 6.5371-0.33888 8.9639 2.0884 2.4394 2.4424 3.124 5.9634 2.0698 9.0195l12.628 12.628c3.0551-1.0528 6.58-0.37262 9.0195 2.0712 3.4106 3.4096 3.4106 8.9345 0 12.345-3.4111 3.4116-8.936 3.4116-12.349 0-2.5645-2.5665-3.1988-6.3345-1.8999-9.4942l-11.777-11.777-0.001 30.991c0.8315 0.41162 1.6162 0.961 2.3091 1.6509 3.4096 3.4092 3.4096 8.9331 0 12.348-3.4106 3.4091-8.938 3.4091-12.345 0-3.4101-3.4146-3.4101-8.9385 0-12.348 0.84275-0.84125 1.8179-1.478 2.8584-1.9048v-31.279c-1.041-0.425-2.015-1.057-2.859-1.905-2.583-2.581-3.2051-6.372-1.8804-9.5439l-12.916-12.918-34.106 34.105c-2.8657 2.867-2.8657 7.513 0 10.378l49.742 49.739c2.8638 2.8648 7.5082 2.8648 10.376 0l49.512-49.504c2.8648-2.8662 2.8648-7.5136 0-10.379"/>
   <g id="text3008" fill="#362701">
    <path id="path2986" d="m294.8 586.34v-8.5319l-5.1839-0.86399c-0.7808-0.0765-1.2713-0.24748-1.4715-0.51299-0.2003-0.26549-0.2858-0.81448-0.25649-1.647v-26.244c0.0675-7.4294-1.7145-12.577-5.3459-15.444-3.6315-2.8664-9.5174-4.2344-17.658-4.104-5.3144-0.21819-10.426 0.7313-15.336 2.8485-4.9094 2.1173-7.5374 6.7117-7.8839 13.783l15.228 1.296c0.004-3.1364 0.67047-5.1524 1.998-6.0479 1.3275-0.89545 3.2894-1.2914 5.8859-1.188 3.2309 0.0383 5.2739 0.82579 6.1289 2.3625 0.85495 1.5368 1.2239 3.5932 1.107 6.1694v5.9399l-12.42 0.86398c-6.7477 0.39603-11.801 1.926-15.16 4.5899-3.3592 2.664-5.0377 6.6779-5.0354 12.042-0.1935 3.5955 0.73349 7.0964 2.781 10.503 2.0475 3.4065 6.3764 5.2334 12.987 5.4809 4.2794-0.0517 7.8704-0.75824 10.773-2.1195 2.9024-1.3612 5.3594-3.0667 7.3709-5.1164l0.53999 0.108 1.08 5.8319zm-22.78-14.26c-1.2668 0.96525-2.7562 1.8427-4.4684 2.6325-1.7123 0.78975-3.4987 1.2082-5.3594 1.2555-1.8158 0.0225-3.2872-0.42749-4.4144-1.35-1.1273-0.92248-1.7078-2.4524-1.7415-4.5899-0.0383-2.1284 0.60522-3.6764 1.9305-4.6439 1.3252-0.96746 3.5617-1.5435 6.7094-1.728l7.3439-0.53999z"/>
    <path id="path2988" d="m318.09 586.34 0.75599-5.3999 0.53999-0.108c1.6807 1.9372 3.8542 3.5437 6.5204 4.8194s5.7846 1.9372 9.3554 1.9845c6.7566 0.099 12.197-2.286 16.321-7.1549 4.1241-4.8689 6.2436-12.816 6.3584-23.841-0.13956-9.9403-2.1555-17.059-6.0479-21.357-3.8925-4.2974-8.8244-6.3944-14.796-6.2909-3.2715 0.007-6.2325 0.5063-8.8829 1.4985-2.6505 0.99229-5.1255 2.4368-7.4249 4.3334l-0.432-0.10799v-29.916h-22.248l-1.188 8.7479 5.9399 2.052c0.53098 0.16207 0.89998 0.43207 1.107 0.80999 0.20699 0.37807 0.30599 0.86406 0.297 1.458v52.703c-0.0203 2.6685-0.19576 5.3504-0.52649 8.0459-0.33076 2.6955-0.69525 5.2694-1.0935 7.7219zm2.376-40.823c1.3275-0.91345 2.9114-1.7594 4.7519-2.538 1.8404-0.77845 3.7484-1.1924 5.7239-1.242 3.5797 0.13054 6.1401 1.7055 7.6814 4.7249 1.5412 3.0195 2.2927 6.7004 2.2545 11.043 0.009 5.454-0.84604 9.7199-2.565 12.798-1.719 3.078-4.356 4.644-7.9109 4.6979-1.9125-0.0337-3.7305-0.45223-5.4539-1.2555-1.7235-0.80322-3.2175-1.7887-4.4819-2.9565z"/>
    <path id="path2990" d="m420.73 586.34v-8.5319l-5.1839-0.86399c-0.78079-0.0765-1.2713-0.24748-1.4715-0.51299-0.2003-0.26549-0.2858-0.81448-0.25649-1.647v-26.244c0.0674-7.4294-1.7145-12.577-5.3459-15.444-3.6315-2.8664-9.5174-4.2344-17.658-4.104-5.3144-0.21819-10.426 0.7313-15.336 2.8485-4.9094 2.1173-7.5374 6.7117-7.8839 13.783l15.228 1.296c0.004-3.1364 0.67047-5.1524 1.998-6.0479 1.3275-0.89545 3.2894-1.2914 5.8859-1.188 3.2309 0.0383 5.2739 0.82579 6.1289 2.3625 0.85496 1.5368 1.224 3.5932 1.107 6.1694v5.9399l-12.42 0.86398c-6.7477 0.39603-11.801 1.926-15.16 4.5899-3.3592 2.664-5.0377 6.6779-5.0354 12.042-0.1935 3.5955 0.73349 7.0964 2.781 10.503 2.0475 3.4065 6.3764 5.2334 12.987 5.4809 4.2794-0.0517 7.8704-0.75824 10.773-2.1195 2.9024-1.3612 5.3594-3.0667 7.3709-5.1164l0.54 0.108 1.08 5.8319zm-22.788-14.256c-1.2668 0.96525-2.7562 1.8427-4.4684 2.6325-1.7123 0.78975-3.4987 1.2082-5.3594 1.2555-1.8158 0.0225-3.2872-0.42749-4.4144-1.35-1.1272-0.92248-1.7078-2.4524-1.7415-4.5899-0.0383-2.1284 0.60522-3.6764 1.9305-4.6439 1.3252-0.96746 3.5617-1.5435 6.7094-1.728l7.3439-0.53999z"/>
    <path id="path2992" d="m459.79 609.23v-8.5319l-11.232-0.97199c-0.78077-0.0293-1.2713-0.18676-1.4715-0.4725-0.20028-0.28576-0.28577-0.84825-0.2565-1.6875v-15.444c2.277 1.836 4.7159 3.213 7.3169 4.1309 2.6009 0.91799 5.3099 1.377 8.1269 1.377 5.8846-0.14266 10.447-1.8613 13.688-5.1559 3.2406-3.2946 5.4912-7.3092 6.7519-12.044 1.2606-4.7346 1.8632-9.3332 1.808-13.796-0.10806-9.9403-2.052-17.059-5.8319-21.357-3.78-4.2974-8.7479-6.3944-14.904-6.2909-3.1342 0.0203-6.3157 0.6278-9.5444 1.8225-3.2287 1.1948-6.1672 2.8553-8.8154 4.9814l-0.53999-0.21599-0.97199-5.5079h-19.008l-1.188 8.7479 5.7239 2.052c0.53098 0.16204 0.89997 0.43203 1.107 0.80999 0.20699 0.37803 0.30599 0.86403 0.297 1.458v54.539c0.0135 0.78972-0.12151 1.3432-0.405 1.6605-0.2835 0.31724-0.7965 0.51973-1.539 0.6075l-4.3199 0.64799v8.6399zm-12.744-63.503c1.224-0.87069 2.8259-1.7212 4.8059-2.5515 1.9799-0.83019 4.1219-1.2757 6.4259-1.3365 2.7449-0.0427 4.9499 1.1768 6.6149 3.6585 1.6649 2.4818 2.5199 6.4822 2.565 12.001 0.0247 5.3595-0.78079 9.5984-2.4165 12.717-1.6358 3.1185-4.2502 4.7114-7.8434 4.7789-2.0228-0.0427-3.9172-0.47023-5.6834-1.2825-1.7662-0.81222-3.2557-1.7527-4.4684-2.8215z"/>
    <path id="path2994" d="m565.33 557.29v-8.6399h-33.156l-1.512 9.7199h11.988v14.148c0.002 0.68175-0.1373 1.1542-0.4185 1.4175-0.2813 0.26326-0.71779 0.43876-1.3095 0.52649-1.278 0.22051-2.718 0.40051-4.32 0.54-1.602 0.13951-3.15 0.21151-4.6439 0.21599-7.7152-0.0697-13.48-2.5762-17.293-7.5194-3.8137-4.9432-5.7172-11.905-5.7104-20.884 0.0562-8.5656 2.0227-15.275 5.8994-20.128 3.8767-4.8531 9.3261-7.3236 16.348-7.4114 1.7099 0.0113 3.4469 0.15081 5.2109 0.41849 1.7639 0.26781 3.3389 0.59631 4.7249 0.98549 0.47694 0.0901 0.84593 0.28806 1.107 0.59399 0.26094 0.30606 0.46794 0.82805 0.62099 1.566l1.62 9.7199 11.988 0.86399v-20.412c-3.4133-2.1509-7.3327-3.7349-11.758-4.7519-4.4258-1.0169-8.6422-1.5209-12.649-1.512-13.594 0.23407-23.746 4.059-30.456 11.475-6.7094 7.416-10.057 17.019-10.044 28.809-0.19125 11.851 2.7292 21.521 8.7614 29.011 6.0322 7.4902 16.324 11.356 30.874 11.596 4.5742 0.027 9.3306-0.35099 14.269-1.134 4.9386-0.78299 9.5061-2.133 13.702-4.05v-23.22c-0.009-0.52872 0.11693-0.90221 0.378-1.1205 0.26092-0.21822 0.71092-0.34871 1.35-0.39149z"/>
    <path id="path2996" d="m592.3 511.71c-0.018-3.0891-0.87302-5.4426-2.565-7.0604-1.692-1.6176-4.113-2.4321-7.2629-2.4435-3.0982 0.0113-5.4877 0.82583-7.1684 2.4435-1.6807 1.6178-2.5312 3.9713-2.5515 7.0604 0.0202 3.0983 0.87073 5.4878 2.5515 7.1684 1.6807 1.6808 4.0702 2.5313 7.1684 2.5515 3.1499-0.0202 5.5709-0.87068 7.2629-2.5515 1.692-1.6807 2.5469-4.0701 2.565-7.1684zm7.0199 74.627v-8.5319l-5.5079-0.75599c-0.78077-0.0765-1.2713-0.24749-1.4715-0.51299-0.20027-0.26549-0.28577-0.81448-0.25649-1.647v-44.819h-22.356l-1.188 8.7479 5.8319 2.052c0.53098 0.16204 0.89998 0.43203 1.107 0.80999 0.20699 0.37803 0.30599 0.86403 0.297 1.458v31.752c0.0225 0.78525-0.0765 1.3207-0.297 1.6065-0.2205 0.28575-0.6975 0.47025-1.431 0.55349l-5.5079 0.75599v8.5319z"/>
    <path id="path2998" d="m642.24 573.81c-1.3095 0.49726-2.7135 0.90675-4.212 1.2285-1.4985 0.32176-3.0105 0.48826-4.5359 0.4995-2.8575 0.0293-4.8105-0.65023-5.8589-2.0385-1.0485-1.3882-1.5435-3.6607-1.485-6.8174v-25.812h16.092v-10.8h-15.228c-0.41402 0.002-0.66602-0.0832-0.756-0.2565-0.09-0.17319-0.12602-0.44769-0.10799-0.82349v-15.336h-10.26c-0.52876 5.8162-1.9012 10.087-4.1174 12.811-2.2162 2.7248-5.6677 4.3222-10.354 4.7924v9.6119h7.5599c0.41398 0.005 0.66598 0.10354 0.75599 0.29699 0.09 0.19355 0.12599 0.45454 0.108 0.78299v28.296c-0.0653 6.0637 1.2802 10.487 4.0364 13.27 2.7562 2.7832 7.3146 4.1557 13.675 4.1174 3.1364-0.0382 6.2594-0.47474 9.3689-1.3095 3.1094-0.83474 5.8544-1.8382 8.2349-3.0105z"/>
   </g>
  </g>
  <text id="text3365" style="word-spacing:0px;letter-spacing:0px" xml:space="preserve" font-size="40px" y="219.79076" x="608" font-family="sans-serif" line-height="125%" fill="#362701"><tspan id="tspan3367" font-weight="bold" font-size="137.5px" y="219.79076" x="608" font-family="&apos;Courier New&apos;" fill="#362701">Server</tspan></text>
 </g>
</svg>
